{"accessors" : [{"bufferView" : 0, "byteOffset" : 0, "componentType" : 5123, "count" : 45756, "type" : "SCALAR", "max" : [45755], "min" : [0]}, {"bufferView" : 1, "byteOffset" : 0, "componentType" : 5126, "count" : 45756, "type" : "VEC3", "max" : [34.21082305908203, 67.36532592773438, 0.48428013920783997], "min" : [-34.21082305908203, -76.19842529296875, -134.38404846191406], "name" : "POSITION"}, {"bufferView" : 1, "byteOffset" : 12, "componentType" : 5126, "count" : 45756, "type" : "VEC3", "max" : [0.9994099140167236, 0.9999147057533264, 0.9999986290931702], "min" : [-0.9994099140167236, -0.9995909929275513, -0.999841570854187], "name" : "NORMAL"}, {"bufferView" : 1, "byteOffset" : 24, "componentType" : 5126, "count" : 45756, "type" : "VEC3", "max" : [1, 1, 1], "min" : [1, 1, 1], "name" : "COLOR_0"}, {"bufferView" : 1, "byteOffset" : 36, "componentType" : 5126, "count" : 45756, "type" : "VEC2", "max" : [0.9929585456848145, 0.9921417236328125], "min" : [0.017578125, 0.006857752799987793], "name" : "TEXCOORD_0"}, {"bufferView" : 0, "byteOffset" : 91512, "componentType" : 5123, "count" : 5856, "type" : "SCALAR", "max" : [5855], "min" : [0]}, {"bufferView" : 2, "byteOffset" : 0, "componentType" : 5126, "count" : 5856, "type" : "VEC3", "max" : [1256.4000244140625, 0, 0.9000000357627869], "min" : [4.800000190734863, 0, -69.10000610351562], "name" : "POSITION"}, {"bufferView" : 2, "byteOffset" : 12, "componentType" : 5126, "count" : 5856, "type" : "VEC3", "max" : [0, 1.0000044107437134, 0], "min" : [0, -1.0000044107437134, 0], "name" : "NORMAL"}, {"bufferView" : 2, "byteOffset" : 24, "componentType" : 5126, "count" : 5856, "type" : "VEC2", "max" : [1, 1], "min" : [0, 1], "name" : "TEXCOORD_0"}, {"bufferView" : 3, "byteOffset" : 0, "componentType" : 5126, "normalized" : false, "count" : 2, "type" : "SCALAR", "max" : [0.04166666666666667], "min" : [0]}, {"bufferView" : 3, "byteOffset" : 8, "componentType" : 5126, "normalized" : false, "count" : 2, "type" : "VEC3", "max" : [41.21957015991211, 31.219955444335938, 65.5205307006836], "min" : [41.21957015991211, 31.219955444335938, 65.5205307006836]}, {"bufferView" : 4, "byteOffset" : 0, "componentType" : 5126, "normalized" : false, "count" : 2, "type" : "SCALAR", "max" : [0.04166666666666667], "min" : [0]}, {"bufferView" : 4, "byteOffset" : 8, "componentType" : 5126, "normalized" : false, "count" : 2, "type" : "VEC3", "max" : [1, 0.9999998807907104, 0.9999998807907104], "min" : [1, 0.9999998807907104, 0.9999998807907104]}, {"bufferView" : 5, "byteOffset" : 0, "componentType" : 5126, "normalized" : false, "count" : 2, "type" : "SCALAR", "max" : [14.958333333333334], "min" : [0]}, {"bufferView" : 5, "byteOffset" : 8, "componentType" : 5126, "normalized" : false, "count" : 2, "type" : "VEC3", "max" : [0, 0, 0], "min" : [0, 0, 0]}, {"bufferView" : 6, "byteOffset" : 0, "componentType" : 5126, "normalized" : false, "count" : 2, "type" : "SCALAR", "max" : [14.958333333333334], "min" : [0]}, {"bufferView" : 6, "byteOffset" : 8, "componentType" : 5126, "normalized" : false, "count" : 2, "type" : "VEC3", "max" : [1, 1, 1], "min" : [1, 1, 1]}, {"bufferView" : 7, "byteOffset" : 0, "componentType" : 5126, "normalized" : false, "count" : 2, "type" : "SCALAR", "max" : [0.08333333333333334], "min" : [0]}, {"bufferView" : 7, "byteOffset" : 8, "componentType" : 5126, "normalized" : false, "count" : 2, "type" : "VEC3", "max" : [0, 0, 0], "min" : [0, 0, 0]}, {"bufferView" : 8, "byteOffset" : 0, "componentType" : 5126, "normalized" : false, "count" : 2, "type" : "SCALAR", "max" : [0.08333333333333334], "min" : [0]}, {"bufferView" : 8, "byteOffset" : 8, "componentType" : 5126, "normalized" : false, "count" : 2, "type" : "VEC3", "max" : [0.18692821264266968, 0.18692821264266968, 0.18692821264266968], "min" : [0.18692821264266968, 0.18692821264266968, 0.18692821264266968]}, {"bufferView" : 9, "byteOffset" : 0, "componentType" : 5126, "normalized" : false, "count" : 2, "type" : "SCALAR", "max" : [0.04166666666666667], "min" : [0]}, {"bufferView" : 9, "byteOffset" : 8, "componentType" : 5126, "normalized" : false, "count" : 2, "type" : "VEC3", "max" : [41.21957778930664, 31.219961166381836, 65.52053833007812], "min" : [41.21957015991211, 31.219955444335938, 65.5205307006836]}, {"bufferView" : 10, "byteOffset" : 0, "componentType" : 5126, "normalized" : false, "count" : 2, "type" : "SCALAR", "max" : [0.04166666666666667], "min" : [0]}, {"bufferView" : 10, "byteOffset" : 8, "componentType" : 5126, "normalized" : false, "count" : 2, "type" : "VEC3", "max" : [100, 100.00000762939453, 100.0000228881836], "min" : [99.99999237060547, 99.99999237060547, 100.00000762939453]}, {"bufferView" : 11, "byteOffset" : 0, "componentType" : 5126, "normalized" : false, "count" : 2, "type" : "SCALAR", "max" : [14.958333333333334], "min" : [0]}, {"bufferView" : 11, "byteOffset" : 8, "componentType" : 5126, "normalized" : false, "count" : 2, "type" : "VEC3", "max" : [0, 0, 0], "min" : [0, 0, 0]}, {"bufferView" : 12, "byteOffset" : 0, "componentType" : 5126, "normalized" : false, "count" : 2, "type" : "SCALAR", "max" : [14.958333333333334], "min" : [0]}, {"bufferView" : 12, "byteOffset" : 8, "componentType" : 5126, "normalized" : false, "count" : 2, "type" : "VEC3", "max" : [100, 100, 100], "min" : [100, 100, 100]}, {"bufferView" : 13, "byteOffset" : 0, "componentType" : 5126, "normalized" : false, "count" : 2, "type" : "SCALAR", "max" : [0.04166666666666667], "min" : [0]}, {"bufferView" : 13, "byteOffset" : 8, "componentType" : 5126, "normalized" : false, "count" : 2, "type" : "VEC3", "max" : [41.21957015991211, 31.219955444335938, 65.5205307006836], "min" : [41.21957015991211, 31.219955444335938, 65.5205307006836]}, {"bufferView" : 14, "byteOffset" : 0, "componentType" : 5126, "normalized" : false, "count" : 2, "type" : "SCALAR", "max" : [0.04166666666666667], "min" : [0]}, {"bufferView" : 14, "byteOffset" : 8, "componentType" : 5126, "normalized" : false, "count" : 2, "type" : "VEC3", "max" : [1, 0.9999998807907104, 0.9999998807907104], "min" : [1, 0.9999998807907104, 0.9999998807907104]}, {"bufferView" : 15, "byteOffset" : 0, "componentType" : 5126, "normalized" : false, "count" : 2, "type" : "SCALAR", "max" : [14.958333333333334], "min" : [0]}, {"bufferView" : 15, "byteOffset" : 8, "componentType" : 5126, "normalized" : false, "count" : 2, "type" : "VEC3", "max" : [0, 0, 0], "min" : [0, 0, 0]}, {"bufferView" : 16, "byteOffset" : 0, "componentType" : 5126, "normalized" : false, "count" : 2, "type" : "SCALAR", "max" : [14.958333333333334], "min" : [0]}, {"bufferView" : 16, "byteOffset" : 8, "componentType" : 5126, "normalized" : false, "count" : 2, "type" : "VEC3", "max" : [1, 1, 1], "min" : [1, 1, 1]}], "animations" : [{"channels" : [{"sampler" : 0, "target" : {"node" : 0, "path" : "translation"}}, {"sampler" : 1, "target" : {"node" : 0, "path" : "scale"}}], "samplers" : [{"input" : 9, "interpolation" : "LINEAR", "output" : 10}, {"input" : 11, "interpolation" : "LINEAR", "output" : 12}], "name" : "Shiba inu|CameraAction"}, {"channels" : [{"sampler" : 0, "target" : {"node" : 0, "path" : "translation"}}, {"sampler" : 1, "target" : {"node" : 0, "path" : "scale"}}], "samplers" : [{"input" : 13, "interpolation" : "LINEAR", "output" : 14}, {"input" : 15, "interpolation" : "LINEAR", "output" : 16}], "name" : "Shiba inu|Empty.001Action"}, {"channels" : [{"sampler" : 0, "target" : {"node" : 0, "path" : "translation"}}, {"sampler" : 1, "target" : {"node" : 0, "path" : "scale"}}], "samplers" : [{"input" : 17, "interpolation" : "LINEAR", "output" : 18}, {"input" : 19, "interpolation" : "LINEAR", "output" : 20}], "name" : "Shiba inu|Shiba inuAction"}, {"channels" : [{"sampler" : 0, "target" : {"node" : 1, "path" : "translation"}}, {"sampler" : 1, "target" : {"node" : 1, "path" : "scale"}}], "samplers" : [{"input" : 21, "interpolation" : "LINEAR", "output" : 22}, {"input" : 23, "interpolation" : "LINEAR", "output" : 24}], "name" : "Camera|CameraAction"}, {"channels" : [{"sampler" : 0, "target" : {"node" : 1, "path" : "translation"}}, {"sampler" : 1, "target" : {"node" : 1, "path" : "scale"}}], "samplers" : [{"input" : 25, "interpolation" : "LINEAR", "output" : 26}, {"input" : 27, "interpolation" : "LINEAR", "output" : 28}], "name" : "Camera|Empty.001Action"}, {"channels" : [{"sampler" : 0, "target" : {"node" : 3, "path" : "translation"}}, {"sampler" : 1, "target" : {"node" : 3, "path" : "scale"}}], "samplers" : [{"input" : 29, "interpolation" : "LINEAR", "output" : 30}, {"input" : 31, "interpolation" : "LINEAR", "output" : 32}], "name" : "Holotna.Com|CameraAction"}, {"channels" : [{"sampler" : 0, "target" : {"node" : 3, "path" : "translation"}}, {"sampler" : 1, "target" : {"node" : 3, "path" : "scale"}}], "samplers" : [{"input" : 33, "interpolation" : "LINEAR", "output" : 34}, {"input" : 35, "interpolation" : "LINEAR", "output" : 36}], "name" : "Holotna.Com|Empty.001Action"}], "asset" : {"generator" : "Aspose.3D 24.9.1", "version" : "2.0"}, "buffers" : [{"uri" : "data:application/octet-stream;base64,", "byteLength" : 2304396}], "bufferViews" : [{"buffer" : 0, "byteOffset" : 0, "byteLength" : 103224, "target" : 34963}, {"buffer" : 0, "byteOffset" : 103228, "byteLength" : 2013264, "byteStride" : 44, "target" : 34962}, {"buffer" : 0, "byteOffset" : 2116496, "byteLength" : 187392, "byteStride" : 32, "target" : 34962}, {"buffer" : 0, "byteOffset" : 2303892, "byteLength" : 32}, {"buffer" : 0, "byteOffset" : 2303928, "byteLength" : 32}, {"buffer" : 0, "byteOffset" : 2303964, "byteLength" : 32}, {"buffer" : 0, "byteOffset" : 2304000, "byteLength" : 32}, {"buffer" : 0, "byteOffset" : 2304036, "byteLength" : 32}, {"buffer" : 0, "byteOffset" : 2304072, "byteLength" : 32}, {"buffer" : 0, "byteOffset" : 2304108, "byteLength" : 32}, {"buffer" : 0, "byteOffset" : 2304144, "byteLength" : 32}, {"buffer" : 0, "byteOffset" : 2304180, "byteLength" : 32}, {"buffer" : 0, "byteOffset" : 2304216, "byteLength" : 32}, {"buffer" : 0, "byteOffset" : 2304252, "byteLength" : 32}, {"buffer" : 0, "byteOffset" : 2304288, "byteLength" : 32}, {"buffer" : 0, "byteOffset" : 2304324, "byteLength" : 32}, {"buffer" : 0, "byteOffset" : 2304360, "byteLength" : 32}], "cameras" : [{"perspective" : {"aspectRatio" : 1.5, "yfov" : 0.6911112070083618, "zfar" : 100000, "znear" : 10.000000149011612}, "type" : "perspective", "name" : "Camera.001"}], "images" : [{"uri" : "E:\\3D-Mallikirjasto\\Characters\\Shiba_Inu01_T_2_LP\\Shiba_DIF01.png"}], "materials" : [{"name" : "DIF", "pbrMetallicRoughness" : {"baseColorFactor" : [1, 1, 1, 1], "baseColorTexture" : {"index" : 0, "texCoord" : 0}, "metallicFactor" : 1, "roughnessFactor" : 1}, "emissiveFactor" : [0, 0, 0], "alphaMode" : "OPAQUE", "doubleSided" : false}], "meshes" : [{"primitives" : [{"attributes" : {"POSITION" : 1, "NORMAL" : 2, "COLOR_0" : 3, "TEXCOORD_0" : 4}, "indices" : 0, "material" : 0, "mode" : 4}], "name" : "Shiba inu"}, {"primitives" : [{"attributes" : {"POSITION" : 6, "NORMAL" : 7, "TEXCOORD_0" : 8}, "indices" : 5, "mode" : 4}], "name" : "Text"}], "nodes" : [{"mesh" : 0, "rotation" : [0.7071068387877038, -0, -0, 0.7071067235853865], "scale" : [0.18692821264266968, 0.18692821264266965, 0.18692821264266965], "translation" : [0, 0, 0], "name" : "Shiba inu"}, {"camera" : 0, "rotation" : [-0.10720501658889178, 0.8730907301484012, -0.05796563272402556, 0.47208012748897904], "scale" : [99.99999237060547, 99.99999237060548, 100.00000762939453], "translation" : [41.21957015991211, 31.219955444335938, 65.5205307006836], "name" : "Camera"}, {"matrix" : [0.9610469300719795, 0, 0.27638501947453237, 0, 0, 1, 0, 0, -0.27638501947453237, 0, 0.9610469300719795, 0, -4.227202415466309, 0.9169629812240601, 3.913433074951172, 1], "mesh" : 1, "name" : "Check Out Our Online Courses"}, {"children" : [1, 2], "name" : "Holotna.Com"}], "samplers" : [{"magFilter" : 9729, "minFilter" : 9729, "wrapS" : 10497, "wrapT" : 10497}], "scene" : 0, "scenes" : [{"nodes" : [0, 3]}], "textures" : [{"sampler" : 0, "source" : 0, "name" : "base_color_texture"}]}